<?xml version="1.0" encoding="utf-8"?>
<!-- Generator: Adobe Illustrator 24.0.0, SVG Export Plug-In . SVG Version: 6.00 Build 0)  -->
<svg version="1.1" id="Layer_1" xmlns="http://www.w3.org/2000/svg" xmlns:xlink="http://www.w3.org/1999/xlink" x="0px" y="0px"
	 viewBox="0 0 391 89" style="enable-background:new 0 0 391 89;" xml:space="preserve">
<g>
	<path d="M197.35,21.57c1.54,0.12,1.74,1.05,1.92,2.09c0.72,4.02,1.97,4.78,5.57,3.17c4.84-2.17,8.36-5.96,11.63-9.97
		c1.3-1.59,1.92-3.56,4.85-3.32c1.21,0.1,2.76-2.14,3.89-3.54c1.71-2.12,3.77-3.81,6.08-5.12c5.9-3.34,10.87-0.77,11.62,6.13
		c0.19,1.79-0.46,3.65,0.34,5.39c1.61,0.36,2.09-0.92,2.68-1.82c2.3-3.53,5.29-6.43,8.5-9.07c1.24-1.02,2.75-2.07,4.55-0.95
		c1.92,1.2,1.9,3.07,1.35,4.88c-0.72,2.37-1.69,4.66-2.57,6.98c-2.82,7.43-6.45,14.57-8.11,22.42c-0.03,0.16-0.14,0.31-0.17,0.47
		c-0.85,3.55-0.2,5.77,1.89,6.45c2.71,0.88,5.7-0.29,7.11-3.22c1.31-2.73,2.58-5.4,5.02-7.32c1.31-1.03,2.65-2.03,4.32-2.4
		c2.62-0.59,3.66,0.15,4.1,2.79c0.33,1.92-0.21,3.96,0.75,6.09c2.56-0.59,4-2.36,5.19-4.33c0.69-1.15,1.55-1.76,2.84-1.52
		c1.59,0.3,1.26,1.67,1.42,2.78c0.23,1.56-0.8,3.7,1.11,4.5c1.98,0.82,3.17-1.28,4.7-2.17c5.45-3.18,5.01-8.99,6.33-13.99
		c0.47-1.79-1.06-1.77-2.22-1.71c-2.99,0.16-5.98,0.42-8.97,0.62c-1.16,0.08-2.32,0.21-3.48,0.2c-0.85-0.01-1.8-0.3-1.89-1.27
		c-0.11-1.2,0.79-1.75,1.88-1.79c4-0.15,7.99-0.36,11.99-0.31c3.08,0.04,4.85-1.21,6.09-4.07c1.58-3.67,3.82-7.01,6.89-9.67
		c1-0.87,2-1.76,3.38-2.04c2.02-0.41,3.12,0.14,3.25,2.45c0.14,2.47-0.94,4.54-1.77,6.68c-0.59,1.51-1.69,2.83-1.69,4.61
		c2.99,1.91,6.95-0.49,10.18,2.41c-3.2,1.36-6.23,0.82-9.12,0.83c-2.26,0.01-3.7,0.73-4.91,2.64c-2.3,3.64-4.41,7.4-7.54,10.51
		c-2.32,2.31-1.56,9.77,0.83,12.04c1.55,1.48,3.46,1.58,5.02,0.47c1.85-1.31,4.76-1.83,4.1-5.42c-0.8-4.32,1.01-8.1,3.57-11.51
		c0.94-1.25,2.11-2.27,3.81-1.42c1.5,0.75,1.38,2.1,1.02,3.47c-0.71,2.72-1.53,5.43-2.07,8.19c-0.52,2.65,0.52,3.42,3.01,2.31
		c2.12-0.94,4.12-2.15,6.21-3.17c3.18-1.55,3.58-1.43,5.56,1.46c1.97,2.88,2.89,3.02,5.35,0.46c1.13-1.18,1.93-2.69,2.87-4.06
		c0.48-0.7,1.02-1.47,1.96-1.16c1.22,0.4,1.21,1.54,0.96,2.51c-0.28,1.11-0.96,2.13-1.21,3.25c-0.64,2.91,0,3.97,2.96,4.32
		c4.09,0.47,7.58,2.19,9.38,5.78c1.51,3.02,3.71,3.29,6.15,2.63c7.53-2.04,15.15-1.5,22.79-1.33c2.88,0.06,5.24,1.49,8.17,1.66
		c-0.86,1.91-1.96,1.4-2.8,1.27c-7.47-1.16-14.95-0.92-22.41-0.07c-2.46,0.28-4.88,0.91-7.3,1.45c-1.71,0.38-2.31,1.58-2.5,3.27
		c-0.53,4.7-3.46,7.97-7.31,10.09c-7.28,4.02-14.93,7.16-23.32,8.32c-2.93,0.41-5.83,1.19-8.79,1.59c-1.36,0.19-2.76,0.64-3.65-0.66
		c-1.03-1.51-0.03-2.85,0.84-4.08c2.23-3.16,4.92-5.88,8.37-7.67c7.82-4.05,15.8-7.77,24.13-10.69c0.93-0.33,1.88-0.63,2.79-0.99
		c3.61-1.46,3.79-2.35,1.05-4.92c-1.13-1.06-2.42-1.75-3.94-2.02c-1.14-0.21-2.29-0.46-3.44-0.56c-2.47-0.2-3.29-2.61-5.01-3.63
		c-1.63-0.97-3.55,1.58-5.66,0.61c-0.96-0.44-1.78-0.99-2.24-1.88c-1.34-2.54-3.24-1.86-5.05-0.85c-2.96,1.65-6,2.8-9.47,2.63
		c-2.29-0.11-4.17,1.15-5.87,2.45c-5.57,4.26-11.49,0.38-12.56-4.97c-0.76-3.81-1.23-3.89-4.37-1.7c-0.82,0.57-1.54,1.29-2.4,1.79
		c-2.96,1.74-4.91,1.26-6.16-1.97c-0.86-2.22-1.88-2.15-3.2-0.83c-2.52,2.52-4.89,2.47-7.35,0c-0.67-0.68-1.6-0.83-2.25-0.22
		c-3.35,3.15-7.97,2.96-11.88,4.66c-4.82,2.09-9.29-1.31-8.93-6.44c0.24-3.41,1.34-6.46,2.48-9.54c2.64-7.15,5.41-14.26,8.15-21.37
		c0.34-0.88,1.43-1.82,0.38-2.64c-1.27-0.99-2.09,0.37-2.89,1.11c-6.34,5.87-10.71,13.12-14.11,20.95
		c-3.17,7.3-5.89,14.79-9.09,22.08c-0.8,1.83-1.21,5.72-4.16,4.32c-2.54-1.2,0.06-4.03,0.89-5.65c4.39-8.59,7.57-17.64,10.46-26.77
		c1.5-4.76,3.3-9.79,1.1-15.07c-1.03-2.46-2.07-3.26-4.83-2.6c-3.41,0.81-5.61,3.18-7.46,5.54c-6.39,8.12-11.39,17.05-14.42,27.04
		c-2.2,7.25-4.06,14.58-5.79,21.95c-0.2,0.85-0.41,1.77-1.43,1.63c-0.91-0.13-1.2-1.04-1.25-1.92c-0.28-4.57,1.21-8.87,2.12-13.24
		c1.17-5.66,2.74-11.25,4.21-16.85c0.22-0.82,0.72-1.65-0.21-2.15c-0.48-0.26-1.31-0.13-1.89,0.08c-0.93,0.34-1.75,0.96-2.67,1.33
		c-2.65,1.05-5.37,1.13-7.51-0.88C195.92,26.75,196.51,24.11,197.35,21.57z M316.45,80.28c9.78-1.23,18.9-4.54,27.57-9.11
		c2.43-1.28,3.75-3.66,4.62-6.24c0.32-0.94,0.72-1.97-0.21-2.75c-0.75-0.63-1.55,0.01-2.32,0.2c-9.86,2.5-18.88,6.99-27.68,11.92
		c-1.86,1.04-3.59,2.34-4.8,4.23c-0.79,1.24-0.58,1.79,0.84,1.87C315.12,80.45,315.78,80.33,316.45,80.28z M307.83,11.36
		c-3.57,1.31-4.6,4.43-6.33,6.88c-0.59,0.84-0.91,1.98,0.12,2.66c1.2,0.79,2.17,0.15,2.87-1C306.02,17.36,307.25,14.7,307.83,11.36z
		 M297.04,31.18c1.77-1.82,3.21-3.08,4-4.88c0.36-0.82,0.15-1.67-0.71-2.03c-0.83-0.35-1.8-0.06-1.97,0.82
		C298.04,26.81,296.74,28.26,297.04,31.18z M263.92,39.63c0.33,0.3,0.66,0.6,0.99,0.9c1.35-0.88,2.76-1.72,2.63-3.75
		C266.27,37.77,265.1,38.7,263.92,39.63z"/>
	<path d="M29.2,24.29c-1.35-0.43-2.29,0.4-3.06,1.23c-2.27,2.43-5.09,2.8-8.21,2.71c-5.86-0.18-8.67-3.84-7.07-9.53
		c0.25-0.89-0.05-2.05,1.37-2.82c1.15,1.35,0.43,3.13,0.87,4.59c1.61,5.42,5.69,7.11,10.25,3.68c4.57-3.45,8.13-7.85,9.6-13.56
		c0.58-2.25,1.25-6.03,3.16-5.4c2.83,0.92,0.7,4.19,0.27,6.47c-0.06,0.32-0.24,0.63-0.29,0.96c-0.14,1.07-1.2,2.33,0.13,3.17
		c0.99,0.63,1.85-0.34,2.61-0.94c2.17-1.71,4.56-2.66,7.39-2.43c3.67,0.29,5.01,1.48,5.39,5.16c0.46,4.48,0.37,8.96,0.07,13.45
		c-0.09,1.3-0.21,2.64,0.4,4.18c1.87-0.78,2.1-2.56,2.93-3.84c2.12-3.24,4.43-6.2,8.2-7.74c3.95-1.61,5.68-0.73,5.98,3.41
		c0.14,1.99,0.27,4.04-0.05,5.98c-0.82,4.92,0.84,9.55,1.45,14.28c0.37,2.85,1.84,3.11,4.02,1.22c1.55-1.34,1.96-2.91,1.87-4.87
		c-0.14-3.13,0.88-5.86,3.39-7.9c1.19-0.97,2.35-1.93,3.96-0.75c1.57,1.15,1.9,2.63,1.38,4.4c-0.54,1.83-1.77,3.2-3.08,4.48
		c-1.17,1.14-1.97,2.35-1.12,3.95c0.76,1.43,2.25,1.19,3.56,1.19c5.44,0,11.01-4.22,12.51-9.65c1.46-5.27,2.68-10.6,4.08-15.89
		c1.12-4.2,2.75-8.19,5.71-11.48c0.85-0.94,1.64-2.38,3.25-1.7c1.63,0.69,1.24,2.18,0.93,3.47c-2.28,9.52-4.8,18.97-10.11,27.36
		c-0.92,1.45-1.73,2.81-1.48,4.61c0.33,2.35,2.58,5.26,4.4,5.61c2.09,0.41,6.57-2.01,7.25-4.21c0.74-2.4,1.7-4.67,2.9-6.87
		c1.14-2.09,2.66-3.82,4.63-5.13c1.87-1.24,3.7-1.09,5.58,0.13c1.76,1.14,1.76,2.75,1.3,4.41c-0.66,2.39-1.7,4.69-2.22,7.1
		c-0.51,2.34-1.78,5.27,0.61,6.96c2.68,1.89,4.49-1.17,6.46-2.39c2.13-1.32,2.79-3.59,2.65-6.1c-0.08-1.49,0.03-3,0.08-4.5
		c0.04-1.07,0.38-2.06,1.61-2.12c1.13-0.06,1.77,0.71,2.13,1.75c0.36,1.05-0.04,2.32,0.9,3.31c1.83-0.4,2.67-2.01,4.04-2.87
		c1.73-1.09,3.47-2.08,5.57-1.01c1.94,0.98,1.37,2.82,1.43,4.42c0.03,0.83-0.1,1.67,0.61,2.59c2.2-0.75,2.38-3.37,3.99-4.66
		c0.52-0.42,1.05-0.89,1.77-0.63c0.74,0.27,0.74,0.99,0.83,1.64c0.2,1.58-0.67,2.88-1.05,4.32c-0.32,1.19,0.02,2.37,0.92,3.21
		c1.19,1.11,2.15-0.08,3.12-0.55c2.37-1.15,3.87-3,4.65-5.56c0.37-1.19,1.02-2.85,2.7-2.24c1.62,0.59,1.36,2.03,0.57,3.34
		c-0.59,0.96-1.6,2.03-0.23,3.01c0.92,0.66,1.85-0.1,2.75-0.53c3.1-1.47,5.92-3.05,5.96-7.15c0.01-0.88,0.88-1.76,1.38-2.62
		c1.03-1.77,2.36-3.96,4.54-2.54c1.67,1.09,2.54,3.56,1.76,5.77c-0.53,1.5-1.14,3.12-2.76,4.03c-1.07,0.6-1.83,1.57-1.12,2.89
		c0.6,1.12,1.7,1.55,2.94,1.57c3.04,0.04,5.83-1.15,8.64-2.04c1.42-0.45,2.58-1.16,4.12-1.03l0,0c-3.52,5.72-12.42,7.66-18.15,3.48
		c-2.29-1.67-3.65-1.31-5.57-0.09c-2.54,1.6-5.08,3.21-8.37,2.17c-0.69-0.22-1.76-0.02-2.37,0.4c-2.59,1.8-5.02,1.48-7.34-0.36
		c-1.48-1.18-2.58-1.03-3.76,0.42c-0.93,1.14-2.26,1.52-3.58,0.75c-1.15-0.67-1.05-1.96-1.07-3.13c-0.04-1.86,0.32-3.61,1.04-5.34
		c0.32-0.78,0.16-1.66-0.77-2.09c-0.71-0.33-1.28,0.07-1.82,0.45c-2.45,1.75-3.3,4.53-4.43,7.09c-0.94,2.11-1.79,3.96-4.68,3.22
		c-1.63-0.42-2.74,0.92-4.02,1.63c-4.15,2.31-6.42,2.08-9.71-1.37c-0.89-0.93-1.59-1.72-2.86-1.37c-2.14,0.59-4.18,0.95-6.14-0.56
		c-0.8-0.62-1.52,0.09-2.25,0.45c-5.04,2.46-7.93,1.96-11.06-2.6c-1.74-2.54-2.54-2.61-5.24-0.84c-4.12,2.71-8.93,4.78-13.9,1.13
		c-1.48-1.08-2.37,0.26-3.45,0.99c-3.77,2.57-5.79,1.85-7.62-2.4c-1.5-3.49-1.47-7.12-1.47-10.78c0-3.5,0.05-6.99,0.03-10.49
		c-0.01-2.19-1.07-2.65-2.86-1.53c-4.27,2.68-6.8,6.82-8.69,11.25c-2.8,6.56-4.61,13.45-6.07,20.43c-0.13,0.64-0.23,1.32-0.52,1.89
		c-0.2,0.39-0.66,0.76-1.09,0.91c-0.85,0.29-1.12-0.47-1.43-1.03c-0.81-1.45-0.32-2.89-0.02-4.36c2.29-11.1,3.98-22.25,3.35-33.64
		c-0.06-1,0.05-2.01-0.07-2.99c-0.39-3.2-2.29-4.67-5.13-3.34c-5.27,2.49-10.18,5.26-11.26,12.1c-1.4,8.82-3.73,17.49-5.26,26.29
		c-0.62,3.56-0.66,7.22-1.68,10.74c-0.32,1.08-0.09,2.51-1.77,2.48c-1.64-0.03-2.36-1.23-2.42-2.65c-0.18-4.32,0-8.62,0.57-12.93
		c1.24-9.4,3.82-18.42,7.13-27.27l0.04-0.25L29.2,24.29z M102.4,31.51c4.08-6.78,4.68-8.91,3.41-12.04
		C104.28,23.23,103.25,26.81,102.4,31.51z M115.93,48.55c4.24-5.13,4.54-5.78,4.75-9.73C117.52,41.6,115.57,44.52,115.93,48.55z
		 M180.79,40.97c-0.1-0.55-0.39-0.91-0.98-0.73c-0.5,0.16-0.72,0.61-0.67,1.12c0.05,0.55,0.36,0.92,0.97,0.73
		C180.62,41.92,180.8,41.48,180.79,40.97z"/>
	<path d="M321.95,22.94c0.98-3,0.82-7.22,2.32-11.13c0.44-1.15,0.74-2.28,2.13-2.38c1.43-0.11,1.99,0.92,2.32,2.13
		c0.13,0.48,0.42,0.91,0.52,1.39c0.68,3.06,2.67,3.41,5.25,2.59c0.63-0.2,1.26-0.41,1.88-0.63c1.52-0.53,2.63,0.22,3.41,1.35
		c0.69,1,0.81,2.32,0,3.29c-3.68,4.4-7.94,8.06-13.83,8.99C322.84,29,321.9,27.73,321.95,22.94z M335.75,18.9
		c-0.98-0.36-1.16-0.5-1.27-0.45c-1.05,0.45-2.08,0.93-3.11,1.42c-3.13,1.49-3.13,1.49-5.04-1.75c-0.95,1.69-0.91,3.55-1.33,5.3
		c-0.63,2.66,1.2,2.59,2.52,2.04C330.71,24.12,333.39,22,335.75,18.9z"/>
	<path d="M179.21,19.78c0.03,1.49-1.02,2.48-1.88,3.4c-1.58,1.69-3.44,3.12-5.14,4.7c-1.21,1.12-2.58,2.17-2.26,4.17
		c0.26,1.63-0.81,1.99-2.11,2.02c-1.28,0.03-2.33,1.92-3.63,0.75c-1.28-1.15,0.32-2.44,0.32-3.63c0-3.76-0.14-7.52,0.36-11.27
		c0.13-0.99,0.03-2.01,0.23-2.98c0.25-1.17,0.9-2.27,2.13-2.55c1.65-0.37,1.68,1.21,2.19,2.17c0.08,0.15,0.14,0.3,0.21,0.45
		c2.15,5.11,2.16,5.14,6.84,2.31C177.61,18.64,178.53,18.13,179.21,19.78z M169.4,25.34c-0.08-0.66-0.26-1.46-1.01-1.39
		c-0.72,0.07-0.82,0.92-0.87,1.56c-0.05,0.69,0.2,1.4,0.97,1.33C169.24,26.78,169.35,26,169.4,25.34z"/>
</g>
</svg>
